; NON-PLATED HOLES START AT T1
; THROUGH (PLATED) HOLES START AT T100
M48
INCH
T1C0.130000
T100C0.035000
T101C0.031497
T102C0.038000
T103C0.030000
T104C0.040000
%
T1
X020062Y011667
T100
X017067Y011757
X024067Y018757
X014067Y003773
X014067Y015757
X017067Y017757
X017067Y016757
X024067Y014757
X014067Y011757
X014067Y014757
X017067Y014757
X014067Y017757
X014067Y012757
X014067Y016757
X017067Y012757
X017067Y015757
X017067Y013757
X018067Y003773
X014067Y013757
T101
X021062Y018767
X021062Y019752
T102
X011062Y012767
X008062Y005767
X023067Y008773
X023067Y007773
X009062Y005767
T103
X009058Y014779
X024067Y011755
X024067Y012757
X011062Y008767
X012064Y008767
X008056Y014779
T104
X008062Y010145
X008062Y008768
X019062Y005767
X020062Y005767
X021062Y005767
T00
M30
